<?xml version="1.0" standalone="no"?>
<!DOCTYPE svg PUBLIC "-//W3C//DTD SVG 20010904//EN"
 "http://www.w3.org/TR/2001/REC-SVG-20010904/DTD/svg10.dtd">
<svg version="1.0" xmlns="http://www.w3.org/2000/svg"
 width="32.000000pt" height="32.000000pt" viewBox="0 0 32.000000 32.000000"
 preserveAspectRatio="xMidYMid meet">

<g transform="translate(0.000000,32.000000) scale(0.100000,-0.100000)"
fill="#000000" stroke="none">
<path d="M86 228 c-42 -59 1 -138 74 -138 71 0 115 73 75 126 -14 18 -14 18
-10 -5 2 -13 -4 -35 -14 -50 -10 -14 -16 -32 -14 -38 3 -9 -9 -13 -44 -13 -43
1 -46 2 -29 15 17 13 17 15 -10 40 -17 16 -24 29 -18 33 8 6 15 52 7 52 -1 0
-9 -10 -17 -22z"/>
<path d="M118 183 c7 -3 16 -2 19 1 4 3 -2 6 -13 5 -11 0 -14 -3 -6 -6z"/>
</g>
</svg>
